<?xml version="1.0" encoding="utf-8"?>
<!-- Generator: Adobe Illustrator 27.2.0, SVG Export Plug-In . SVG Version: 6.00 Build 0)  -->
<svg version="1.1"
	 id="Camada_1" xmlns:sodipodi="http://sodipodi.sourceforge.net/DTD/sodipodi-0.dtd" xmlns:rdf="http://www.w3.org/1999/02/22-rdf-syntax-ns#" xmlns:svg="http://www.w3.org/2000/svg" xmlns:dc="http://purl.org/dc/elements/1.1/" xmlns:inkscape="http://www.inkscape.org/namespaces/inkscape" xmlns:cc="http://creativecommons.org/ns#"
	 xmlns="http://www.w3.org/2000/svg" xmlns:xlink="http://www.w3.org/1999/xlink" x="0px" y="0px" viewBox="0 0 1000 1456"
	 style="enable-background:new 0 0 1000 1456;" xml:space="preserve">
<path id="SEDE" inkscape:connector-curvature="0" d="M415.2,1400c-0.7-9.5,2.4-16.8,15.6-36.5c2.7-4,6.8-8.5,9.9-10.8
	c2.9-2.2,5.3-4.3,5.3-4.8s2.5-2.7,5.6-4.8l5.6-3.8l5.4-15.5c4.1-11.8,6.1-16.1,8.3-18.1c3.2-2.9,6.7-13.5,5-15.3
	c-1.4-1.5-1.1-12.1,0.7-18.9c1.8-7.1,5-13,9.3-17c1.7-1.6,3.3-4.2,3.7-5.9c0.4-1.7,1.5-3.2,2.5-3.5c1-0.3,2-0.8,2-1.1
	c0.3-1.3,0.6-5.1,0.4-5.1c-0.1,0-5.5,1.8-12.1,4c-6.5,2.2-12.7,4-13.7,4c-1.6,0-1.8-1-1.8-8.1v-8.1l11.5-12.9
	c10.7-12.1,11.4-13.1,10.8-16.2c-1.7-8.6-1.4-8.3-7.6-7.9c-7.5,0.5-8.2-1.1-3.9-9c3.8-6.8,3.8-6.9,1.1-6.9c-1.2,0-3.5-1.5-5.2-3.4
	c-3.3-3.6-9.4-6.8-16.3-8.6c-2.3-0.6-4.7-1.7-5.4-2.6c-1.8-2.2-4.5-1.8-9.1,1.1c-4.3,2.7-7.5,2.7-13.2-0.2c-2.5-1.3-2.7-1.9-2.7-6.9
	c0-4.5,0.4-6,2.5-8c1.3-1.3,2.8-2.5,3.3-2.5c0.7,0,3.2-5.6,3.2-7.2c0-0.3-2.1-2-4.7-3.7c-3.6-2.4-5.4-3-7.5-2.5
	c-1.5,0.3-4.1,0.3-5.8,0c-2.8-0.6-3-1-3-5c0-2.4-0.5-4.7-1.1-5c-1.4-0.9-0.2-7.4,1.7-9.6c1.1-1.3,1.2-1.8,0.3-2.4
	c-0.9-0.5-1-3.3-0.6-10c0.6-8.6,0.4-9.6-1.9-14c-1.8-3.3-2.3-5.6-1.9-7.5c0.6-2.5,0.2-3-3.1-4.6c-4.1-1.9-6-6.2-4.3-9.4
	c0.7-1.4,0.5-1.9-1.1-2.4c-3.2-1-3.8,0.5-2.8,6.3c1.3,6.8-0.1,11-4.4,13.9c-3.9,2.6-8.9,2.9-14.1,0.7c-2.4-1-3.6-2.2-3.6-3.4
	c0-2.9-1.1-5.1-2.6-5.1c-0.7,0-3-1.5-5.1-3.2c-2-1.8-5.1-3.7-6.8-4.2c-2.6-0.8-3.1-1.6-3.4-4.7c-0.2-2,0.1-4.6,0.7-5.6
	c0.7-1.3,0.7-2.2-0.1-3c-1.5-1.5-2.7-1.5-2.8,0.1c0,1.6-4.1,6.2-6.8,7.6c-1.1,0.6-4.8,1.1-8.1,1.1H337v4v4h-6.4
	c-6.2,0-6.4-0.1-7.4-3c-1.2-3.4-2.1-3.6-6.1-1.5c-1.9,1-3.1,2.6-3.6,4.6c-0.6,2.7-0.2,3.6,3.4,7.3c6.4,6.5,5.4,9.6-3,9.6
	c-2.8,0-4.3,0.6-5.2,2c-1.8,2.9-6.5,2.7-7.9-0.4c-0.9-2.1-1.6-2.3-4.5-1.9c-2,0.3-4,0-4.9-0.7c-1.3-1.1-1.5-0.7-1.5,3.1
	c0,3.5-0.5,4.8-2.7,6.6c-3.4,2.9-9.3,3.1-11.8,0.3c-1.4-1.5-2.1-1.7-3.1-0.9c-0.8,0.7-3,0.9-5.6,0.5c-12.5-1.9-13.5-1.9-14,0.4
	c-0.3,1.2,0,3.5,0.6,5.2c1,2.6,0.9,3.3-0.6,4.3c-1,0.7-2.4,2.9-3.3,4.9c-1.8,4.2-4.9,4.9-6,1.4c-0.7-2.1-0.7-2.2-1.2-0.2
	c-0.3,1.1-1.2,2.8-2.1,3.8c-1.4,1.6-1.4,2,0.6,4c1.2,1.3,2.4,3.8,2.8,5.7c0.4,1.9,1.3,4.3,2,5.4c0.7,1.1,1.3,3.2,1.3,4.7
	c0,2.1,0.5,2.8,1.9,2.8c2.6,0,3.8,1.8,4.6,6.8c0.6,3.7,0.3,4.8-1.9,7.7c-3.7,4.9-3.3,6.7,2.2,9.9c5.2,3,8.9,7.6,8.4,10.4
	c-0.5,2.8-2.5,6.2-3.3,5.7c-1.2-0.7-9.9,3.4-9.9,4.7c0,0.6-1.2,0.9-3,0.7c-2.6-0.4-3.1,0-4,2.5c-0.6,1.6-1,3.6-1,4.4
	c0,2.5-4.2,11.3-5.4,11.3c-0.6,0-4,2.6-7.4,5.7c-5.9,5.4-6.3,6-6.2,10.3c0,2.5-0.5,5-1,5.6c-1.5,1.5-1.6,16-0.1,17.5
	c1.7,1.7,1.5,3.2-0.7,5.7c-2.6,3-4.8,2.7-6.6-0.8c-1.9-3.6-2.5-3.7-5.2-0.7c-1.2,1.2-2.8,2.8-3.6,3.4s-1.6,1.7-1.9,2.4
	c-0.3,0.8-1.3,1-3.1,0.5c-2-0.5-2.9-1.6-3.7-4.7c-1.1-4-1.1-4-5.9-4c-3.5,0-5.3,0.5-6.6,2c-1,1.1-2.4,2-3.1,2
	c-2.2,0-8.4,6.1-8.4,8.2c0,1.1-0.7,2.6-1.6,3.2c-2.1,1.5-1.2,4.2,2.9,8.8c4.2,4.6,7.8,6,15.4,5.8l6.2-0.1l0.3,3.2
	c0.3,2.7,1,3.6,4.5,5.2c2.3,1.1,4.2,2.7,4.2,3.6c0,0.9-0.9,4.3-1.9,7.5c-1.1,3.2-2,7.4-2,9.3c0,1.9-0.6,5.1-1.2,7.3
	c-1.1,3.6-1,4,1,5.4c2.2,1.6,2.9,5.8,1.2,6.9c-0.5,0.3-1,2.4-1,4.5c0,3.3,0.4,3.9,2.2,4.2c1.9,0.3,2.3,1,2.6,5.2
	c0.2,3.4-0.2,5.4-1.3,6.7c-1,1.1-1.4,2.6-1,3.8c0.6,1.9,0.2,2-7.3,1.9c-8.5-0.1-12,1.2-14.2,5.3c-0.9,1.7-0.8,2.5,0.7,4
	c1.4,1.6,2.6,1.8,6,1.3c2.6-0.4,4.5-0.2,4.9,0.5c1,1.6,3.6,1.4,3.6-0.3c0-2.4,3.2-2.8,5.4-0.7c1.4,1.3,2.6,1.7,3.6,1.1
	c0.8-0.5,2.7-0.6,4.2-0.3c2.1,0.4,2.8,1.2,3,3.5c0.3,2.6,1.2,3.5,6.8,6.4c3.6,1.8,7.2,3.4,8.1,3.4s2.9-1.4,4.5-3.1
	c2.8-3,3.2-3.1,9.1-2.6c4.6,0.4,6.8,0.1,8.4-1.1c1.9-1.4,2.3-1.4,3.3,0c0.6,0.8,3,1.8,5.4,2.2c2.4,0.4,6.2,1.3,8.5,2.1
	c2.3,0.8,5.4,1.5,7,1.5c1.8,0,2.7,0.5,2.7,1.5c0,0.8,0.6,1.5,1.3,1.5s2.6,1.3,4.1,2.9c2.7,2.8,9.1,4.7,10.2,2.9
	c0.3-0.4,1.6-0.8,2.9-0.8c1.3,0,2.8-0.6,3.2-1.4c0.9-1.7,8.1-3.8,8.8-2.6c0.8,1.4,5.4,1.8,6.6,0.6c0.9-0.8,1.1-0.7,0.7,0.4
	c-0.3,0.8,0.1,1.9,0.7,2.5c1.6,1.4,7.5,4.5,8.6,4.5c0.5,0,1-0.8,1-1.7c0.1-1.7,0.1-1.7,0.6,0c0.6,2.2,1.9,2.3,2.7,0.1
	c0.5-1.4,0.9-1.4,2.2-0.3c0.9,0.8,3.9,1.3,7.2,1.2c4.8-0.1,5.9-0.4,7.8-2.9c1.9-2.4,2.7-2.7,5.8-2.2c2.6,0.4,4.2,0.1,5.9-1.3
	c2.6-2,7.2-2.7,10.3-1.6c5.9,2.2,11.4,5.5,14.8,9c3.8,3.9,3.8,3.9,7,2.4c6.6-3.1,14.7,2.6,14.7,10.3c0,3.4,2.3,4.8,5.1,3
	c2.5-1.6,2.5-1.6,3.7,1.8c0.6,1.6,1.7,3,2.4,3C415.3,1405.9,415.5,1404.6,415.2,1400L415.2,1400z M178,1356.3
	c0-4.3,4.7-7.9,11.3-8.7c3.2-0.4,6.9-0.4,8.2-0.1c1.6,0.4,2.5,0.2,2.5-0.6c0-0.7,0.7-2.7,1.6-4.5c2.1-4.4,1.6-7.9-1.3-8.3
	c-1.2-0.2-2.3-0.6-2.3-1c0-0.4-0.2-2.2-0.4-4.2c-0.2-1.9,0.3-4.8,1.2-6.4c1.2-2.4,1.3-3,0.2-3.7c-0.7-0.5-1.7-0.9-2.2-0.9
	c-1.3,0,1.2-18.7,3.5-26l1.4-4.4l-4-2.1c-3.3-1.7-4.1-2.7-4.3-5.4c-0.3-3.1-0.5-3.2-3.6-2.7c-6,1.1-13.4-1.2-17.5-5.5
	c-2.1-2.1-4.3-5.3-5-6.9c-1.1-2.7-1-3.3,0.9-5.3c1.2-1.3,2.1-3,2.1-3.9c0-2.2,4.2-7,7.7-8.7c1.6-0.8,3.5-2,4.3-2.6
	c0.8-0.7,4.4-1.4,8-1.5l6.5-0.3l1.3,4c1.7,5.1,1.9,5.2,4,3.2c7.6-7.4,11.4-8.6,13.4-4.3c0.7,1.6,1.7,2.2,2.9,1.9
	c1.7-0.5,1.7-0.7,0.3-2.9c-1.3-2-1.5-4-0.9-11.1c0.4-4.8,1.1-9.1,1.6-9.7c0.5-0.5,0.9-3.1,0.9-5.7c0-4.5,0.3-4.9,6.2-10.3
	c3.4-3.1,6.7-5.6,7.3-5.6c1.4,0,4.2-5.9,5.5-11.6c1.2-5.3,3.3-7.8,6-7.1c1.2,0.3,2.1-0.1,2.5-1.2c0.3-1,2.7-2.3,5.7-3.1
	c6-1.7,8.3-4.4,5.6-6.4c-1-0.7-1.7-1.8-1.7-2.5s-2-2-4.4-3.1c-2.4-1-4.7-2.4-5.1-3c-1.6-2.6-0.8-7.7,1.7-11.1c2-2.7,2.4-3.8,1.6-5.2
	c-0.6-1-0.8-2.4-0.5-3.2c0.3-0.9-0.5-1.6-2.3-2c-2.3-0.5-3-1.3-3.5-4.3c-0.4-2-1-4.1-1.5-4.7c-0.4-0.6-1.1-2.6-1.4-4.6
	c-0.4-2-1.8-4.6-3.1-5.9c-3-2.8-3.1-4-0.5-7.3c1.1-1.4,2-3.3,2-4.1c0-1.9,4-2.2,5.8-0.4c0.9,0.9,1.4,0.5,2.3-1.9
	c0.6-1.7,1.7-3.4,2.5-3.7c1.2-0.4,1.2-0.9,0.3-2.4c-0.7-1.1-0.9-3.3-0.5-5.5l0.7-3.7h5.9c3.2,0,7,0.5,8.4,1.1
	c3.1,1.4,6.5,0.4,4.8-1.4c-1.6-1.6-1.5-4.8,0.2-6.7c1.7-2,3.8-15.2,3.8-24.1c0-6.3-0.3-7.2-3.3-10.9c-2-2.4-4.2-4-5.5-4
	c-1.2,0-2.4-0.8-2.7-1.8s-1.5-4.2-2.7-7.2s-2.4-8.7-2.7-12.7c-0.6-7-0.5-7.3,2.8-11.8c3.4-4.5,3.4-4.6,8.9-4.3l5.5,0.3l-0.1-5.6
	c-0.1-4.5-0.6-6.3-2.9-9.2c-2.4-3.1-3.4-3.6-6.7-3.6H261v-4.1c0-2.7,0.6-4.6,1.6-5.3c2.2-1.6,1.1-8.5-1.4-8.5
	c-3.6,0-6.2,1.3-6.8,3.3c-1,3.4-3.5,5.6-6.3,5.6c-1.7,0-2.9,0.7-3.6,2.2c-1.3,3-5.5,3.5-7.9,0.9c-1-1.1-2-3.8-2.3-6l-0.5-4.1h-65.9
	c-56.2,0-65.9,0.2-65.9,1.4c0,0.8-0.5,1.6-1.1,1.8c-1.5,0.5-3.9,7.6-3.9,11.7c0,1.9-0.8,4.3-1.7,5.3c-1.1,1.2-1.8,3.8-1.9,7
	c-0.2,5.5-1.9,7.8-6,7.8c-2.2,0-5.4,2.3-5.4,4c0,0.5-1.2,1.1-2.7,1.5s-4.3,2.5-6.3,4.6c-2.7,2.9-4.1,3.8-5.4,3.3
	c-1.5-0.6-1.7-0.3-1.1,1.5c0.4,1.4,0.2,2.9-0.7,3.9c-0.8,0.9-1.9,3.4-2.5,5.6c-1,3.4-0.9,4.1,0.8,5.5c1.1,0.9,3,4.3,4.3,7.6
	c2.2,5.8,2.5,6.1,8.5,8.5c3.9,1.6,6.2,3.1,6.2,4.1c0,0.9,0.3,1.9,0.7,2.2c1.3,1.3,0.9,19.1-0.5,22.7c-2.6,6.3-3.2,12.9-1.6,16.7
	c2.6,6.2,1.4,8.9-5,10.9c-3.5,1.1-7.3,8.1-8.4,15.3c-0.5,3.3-1.2,4.8-2.9,5.5c-2.5,1.1-2.9,3-0.8,3.8c0.8,0.3,4.2,0.9,7.5,1.2
	c5.9,0.7,6,0.8,5.4,3.2c-0.5,2-0.3,2.4,0.9,1.9c1.1-0.4,1.8,0.2,2.2,2.1c0.4,1.6,0.2,2.8-0.4,3c-0.6,0.2-1.1,0.9-1.1,1.5
	s-2,3.2-4.5,5.6c-2.5,2.4-4.7,5.2-5,6.2s-1.4,2-2.4,2.3s-2.4,2.4-3.1,4.6c-0.7,2.2-1.7,4-2.1,4s-0.6,0.6-0.3,1.4
	c0.3,0.8,0.1,2.3-0.6,3.5c-0.8,1.5-0.8,3.3,0.1,6.6c1.3,5.1,0.7,6.5-2.1,4.7c-2.8-1.7-3.9-1.5-4.9,1c-1.4,3.9-0.3,5,4.4,4.3
	c3.8-0.6,4.3-0.4,5.5,1.9c0.7,1.4,3.3,3.7,5.7,5.1c2.8,1.6,4.3,3.2,4.3,4.5c0,2.3,3.1,2.6,7.6,0.9c2.7-1,2.8-1,0.9,1
	c-1,1.1-1.4,2.1-0.8,2.1s1.4-0.4,1.7-1c0.9-1.5,9.6-1.2,12.9,0.5c1.6,0.8,3.4,1.5,4.1,1.5s1.5,0.7,1.9,1.5c0.3,0.8,1.2,1.5,2,1.5
	c3.4,0,5.5,8,3.6,13.4c-0.7,2-0.8,4.3-0.2,6.5c0.8,3.2,1,3.3,2.7,1.6c1.7-1.7,1.9-1.7,5.8,0.1c3.9,1.8,4,1.9,2.1,3.4
	c-3.6,3-5.5,8-2.9,8c1,0,1.2,1.1,0.6,4.7c-0.4,2.6-0.8,5.3-0.8,6c0,0.7-1.2,1.5-2.6,1.9c-3.7,0.9-3.3,4.7,0.9,7.9
	c2.8,2.1,3.5,3.5,4.1,7.5c0.4,2.7,1.1,5.2,1.6,5.5c1.5,0.9,1,5.5-0.7,6.1c-2.5,1-3.9,5.5-2,6.9c2.3,1.7,2,5.1-0.5,5.7
	c-1.7,0.4-1.9,1-1.4,2.9c0.4,1.3,1.3,2.9,2,3.7c1.7,1.8-0.1,6.1-2.7,6.1c-2.4,0-2.3,1.1,0.2,3.3c2,1.7,2,1.7-1,7.7
	c-1.7,3.3-2.7,6-2.3,6.1c0.4,0.1,1.9,0,3.3-0.1c3.5-0.2,8,1.6,8,3.3c0,0.8-1.2,1.9-2.6,2.6c-1.4,0.7-2.3,1.5-2,1.8
	c0.3,0.3,2.2-0.2,4.1-1.2c3.4-1.8,3.5-1.8,7.9,0.5c3,1.6,5.3,2.1,7.1,1.7c2-0.5,2.6-0.3,2.6,1.1c0,1,1.2,3,2.6,4.6
	c2.3,2.5,3.1,2.7,6.4,2.2c3.1-0.5,4.4-0.2,6.8,1.6c2.7,2,3.4,2.1,7.5,1.1c6.2-1.6,6.4-1.5,7.1,2c0.4,1.9,1.8,3.7,3.6,4.7
	c1.6,0.9,2.9,2.2,2.9,3c0,0.7,0.5,1,1,0.7C177.6,1359.1,178,1357.7,178,1356.3L178,1356.3z M499,1231.6c1.8-2,3.9-3.7,4.7-3.7
	s2.5-1.2,3.8-2.6c1.7-1.8,3-2.4,4.5-1.9c1.1,0.4,2.1,1.1,2.1,1.5c0,1.4,8.3-2.7,10.2-5c0.9-1.1,2.5-2,3.6-2s2.9-0.9,4-2s2.6-2,3.3-2
	s0.9-0.8,0.6-1.8c-0.4-1.1,0.8-3.3,3.3-6.2c3.2-3.7,4-4.2,4.6-2.8c0.4,1-0.1,2.9-1.4,4.7c-1.2,1.6-2.1,3.2-2.1,3.5s1.5,1,3.4,1.6
	c4.8,1.6,7.1,4.3,5.7,6.9c-1.5,2.7-1.4,4.2,0.3,3.6c0.7-0.3,2.6-3.2,4.1-6.4c2.7-5.6,3-5.9,7.4-6.5c5.1-0.8,7.1-2.6,7.1-6.8
	c0-3.6,1.3-6,6.8-12.4c3.2-3.8,5.6-5.5,8.5-6.3c3.4-0.9,4.2-1.7,5.6-5.3c0.9-2.3,3.2-7.5,5.2-11.5l3.6-7.3l-2.7-1.4
	c-2.9-1.5-4.3-1-5.3,1.7c-0.5,1.3-0.1,1.7,1.7,1.7c3.4,0,3.9,1.1,1.6,3.6c-2,2.1-2.3,2.1-5.9,0.7c-2.3-0.9-3.7-2-3.4-2.8
	c0.3-0.7-0.5-2-1.8-2.9c-2.7-1.9-2-3,2.1-2.8c2.6,0.1,3-0.3,3-2.4c0-2.7,2.3-4.2,4.3-2.6c0.7,0.5,2.7,1.3,4.6,1.7
	c2.6,0.6,3.8,0.3,5.5-1.3c1.2-1.1,3.7-2.4,5.7-2.9c3-0.8,3.5-1.3,3.5-3.8c0-1.6,0.9-4.2,1.9-5.7c1.6-2.4,2.4-2.7,5-2.2
	c1.7,0.4,3.7,1.4,4.4,2.3c0.7,0.9,1.7,1.7,2.2,1.7s1.2,0.3,1.6,0.7c0.8,0.8,3.4-1,3.4-2.3c0-0.5,1.7-3.3,3.9-6.4
	c2.4-3.5,4.1-7.2,4.6-10c0.4-2.7,2.5-7.3,5.2-11.7c2.5-4,5.3-8.6,6.2-10.1c0.9-1.6,2.3-3.6,3.1-4.5c0.8-0.9,2.6-5,3.9-9.1
	c1.3-4.1,4.8-11.9,7.8-17.3s5.2-10.4,5-11.2c-1.5-3.9,7.7-23.6,13-27.8c1.2-1,2.5-3.3,2.9-5.2c0.3-1.9,1.3-3.6,2-3.9
	c2.5-1,1.5-2.3-1.5-1.8c-2.8,0.4-2.9,0.3-3.2-3.9c-0.2-3.2-0.7-4.3-1.8-4c-1.1,0.2-1-0.2,0.3-1.7c1.2-1.3,1.6-2.7,1.2-4
	c-0.9-2.8,0.8-5.6,5.2-8.6c5.3-3.6,9.7-3.4,11.8,0.5c0.9,1.7,1.3,3.9,1,5c-0.7,2.1-0.5,2.3,1.9,1.4c0.8-0.3,1.3-1.2,1-1.9
	c-0.8-2.1,4.3-11.7,9.6-18c5.8-6.9,8.1-11.3,8.8-17c0.3-2.3,1.1-5.3,1.9-6.8c0.7-1.5,1.4-4.4,1.4-6.5c0-2.1,1.1-7.6,2.5-12.2
	c1.5-5.1,2.5-11,2.5-14.8c0-6-0.2-6.6-3.9-10.6l-3.9-4.3l2.1-3.6c1.7-2.9,2.8-3.7,6-4.1c4.8-0.6,4.8-0.6,5.8-5.3
	c1-4.5,0.6-5.2-2.1-3.5c-2.2,1.4-16.3,0.1-19.9-1.8c-1.4-0.8-3.1-0.7-6,0.1c-2.9,0.9-4.6,0.9-6.4,0.1c-1.3-0.6-4.2-0.8-6.4-0.5
	c-3.7,0.5-4,0.3-4.7-2.2c-1-4.1-5.4-10.5-7.2-10.5c-2,0-9.9-7.9-10.8-10.8c-0.4-1.2-1.6-2.4-2.7-2.8c-2.4-0.8-3.9-4.3-3.9-9.4
	c0-3.9-2.5-6.4-4-4c-1,1.7-8.7,2.4-11.3,1.1c-1.2-0.6-6.5-1.2-11.7-1.4c-9.3-0.3-9.5-0.3-9.8-2.7c-0.2-1.4-1.1-3.6-2.1-5
	c-1-1.4-2.4-4.5-3.2-7l-1.5-4.5l-1.5,4.5c-2.1,6.4-4.2,6.3-11.1-0.5c-4-3.9-6.5-5.5-8.3-5.5c-2.5,0-2.6,0.2-2.1,3.6
	c0.4,2.7,2,4.9,6.6,9.2c6,5.6,6,5.7,6,11.2v5.6l4.4-0.4l4.4-0.4l0.3,11.5c0.4,12.9,1,14.2,8.3,17.9c5.1,2.6,5.5,3.3,4.8,8.7
	c-0.7,5.6-5.1,22.9-6.4,25.3c-0.5,1-1,5.4-1,9.9c0,7.5,0.3,8.6,3.1,13.1c3,4.6,7.1,7.8,10.1,7.8c2.6,0,8,6.7,8.9,11.2
	c2.1,9.6,2.2,9.1-2.5,12.1c-5.3,3.3-11.7,3.6-23,1.1l-7.4-1.6l-4.3,3.1c-4.7,3.4-8.4,4-11.1,1.6c-1.6-1.4-2.2-1-8.1,4.6
	c-7.9,7.7-13.4,10-22.9,9.8c-6.7-0.1-6.9-0.2-7.5-3c-0.3-1.6-0.3-3.8,0-4.9c0.5-1.6,0.3-1.9-0.9-1.4c-1.8,0.7-2.2,6.4-0.6,9.3
	c0.5,1,2.8,3.1,5.1,4.7l4.2,2.9l-0.6,9.8c-0.4,6.8-1.3,11-2.6,13.7c-2.5,4.9-2.5,5,0.4,5c1.3,0,2.9,0.7,3.6,1.5s2.5,1.5,4.1,1.5
	c2.5,0,2.9,0.4,2.9,3.1c0,3,0.1,3.1,3.8,2.4c9-1.5,7,6.3-2.4,9.7c-2.7,1-9,2.1-13.9,2.4c-10.4,0.7-12.5,2.1-12.5,7.9
	c0,2-0.7,5-1.6,6.7c-1.2,2.4-1.4,3.6-0.5,4.9c2.4,3.9-6.7,5.2-9.8,1.4c-0.6-0.8-1.8-1.2-2.5-0.9c-0.9,0.3-1.5-0.4-1.7-2.3
	c-0.3-2.2-1-2.9-3.5-3.4c-1.7-0.4-5-2.1-7.1-3.8c-4.6-3.6-4.9-3.7-7.2-1.6c-1.3,1.2-1.6,2.6-1.2,5.4l0.5,3.9l-4.4,0.3
	c-4.1,0.3-4.5,0.6-7.1,5.3c-1.5,2.7-3.2,6-3.7,7.2c-1.4,3.2-4.8,4.8-7.6,3.5c-1.8-0.8-2.6-0.7-3.6,0.5c-1.8,2.1-13,9.3-14.5,9.3
	c-1.5,0-4.6-3-4.1-3.9c2.1-3.9,3.8-8.6,3.3-9.7c-0.6-1.7-5.6-1.8-12.7-0.3c-5.1,1.1-5.3,1-7.5-1.6c-1.3-1.5-2.3-3.7-2.3-5
	c0-2.8-1.6-3.6-8-3.6c-4.2,0-5.2-0.4-7.9-3.5c-1.7-1.9-3.6-3.5-4.3-3.5c-0.7,0-2.2-0.9-3.4-2.1c-1.9-1.8-2.5-1.9-4.3-0.7
	c-1.8,1.1-2.6,1.1-4.9-0.2c-3.1-1.8-12.3-1.3-12.9,0.8c-0.2,0.7,1.4,2.4,3.7,3.8c3.4,2.1,4.1,3.1,4.1,5.8c0,1.8,0.9,5.1,2.1,7.2
	c1.8,3.5,2,5.1,1.5,13.1c-0.4,5.8-0.2,9.4,0.4,9.8c1.6,1,1.2,7.1-0.5,8.5c-1,0.9-1.3,2.2-0.9,4.1c0.3,1.5,0.6,4.2,0.7,5.8
	c0.1,3.1,0.1,3.1,5.8,3.1c4.8,0,6.3,0.5,9.5,3c2.1,1.6,4.2,3,4.6,3s0.9,1.4,0.9,3.1c0,4-2,10.9-3.2,10.9c-2,0-5.8,5.1-5.8,7.8
	c0,2.5,0.6,3.1,3.9,4.2c3.6,1.2,4.2,1.1,7-0.9c4.9-3.5,9.1-3.7,13.5-0.7c2.1,1.4,4.7,2.6,5.7,2.6c2.5,0,2.7,0,8.6,3
	c2.9,1.4,6.2,3.8,7.3,5.3c1.1,1.5,3.5,3,5.3,3.5c1.8,0.5,3.3,1.6,3.5,2.4s-1,4.3-2.7,7.6l-3,6l5.3-0.5l5.3-0.5l1.1,3.4
	c0.6,1.9,1.3,5.6,1.7,8.4l0.6,5l-11.5,12.9l-11.5,12.9v5.8v5.8l12.9-4.2C493.9,1235.9,496.2,1234.8,499,1231.6L499,1231.6z
	 M480.8,1096.5c1.6-1.4,3.4-2.5,3.9-2.5s2-1.2,3.4-2.6c2-2.2,3-2.5,6.1-2c3.9,0.6,4.4,0.1,10.9-11.9c1.3-2.4,2.5-3.1,5.7-3.5
	c3.4-0.4,3.9-0.8,3.2-2c-1.5-2.4-1.2-3.9,1.5-6.5c3.3-3.3,6.9-3.1,11.5,0.7c2.1,1.7,5.4,3.4,7.2,3.8c2.4,0.5,3.4,1.3,3.6,2.9
	c0.2,1.2,0.9,2.2,1.6,2.2s1.8,0.6,2.5,1.4c0.6,0.8,2,1.6,3,1.9c1.4,0.4,1.7,0,1.4-1.4c-0.3-1,0.5-3.5,1.6-5.4
	c1.3-2.1,2.1-5.3,2.1-7.9c0-6.1,1.7-7.2,12.7-8c10.2-0.7,16.1-2.4,19.5-5.5l2.2-2h-5.3h-5.3l0.6-3c0.5-2.3,0.3-2.8-0.8-2.4
	c-0.8,0.3-2.8-0.4-4.4-1.5c-1.6-1.2-4.1-2.1-5.5-2.1c-3.1,0-3.3-1.7-0.7-6.8c3-5.9,5.4-22.2,3.3-22.2c-0.4,0-2.7-1.7-5-3.9
	c-4.1-3.7-4.2-4.1-4.2-9.9c0-6.3,0.7-7.2,5.2-7.2c1.6,0,2,0.6,1.8,3.2c-0.3,5.4-0.1,5.6,4.5,6.3c7,1.1,12.9-1.5,21-9
	c7-6.6,10.2-7.9,12.5-5.1c1.5,1.8,3.4,1.1,8.3-2.6l3.7-2.9l9,2c12.2,2.7,15.7,2.6,20.7-0.8c3.1-2.1,3.9-3.2,3.3-4.2
	c-0.5-0.8-0.9-2.7-0.9-4.4c0-3.3-6.2-10.5-9-10.5c-2.5,0-6.7-3.3-9.7-7.5c-2.7-3.8-2.8-4.5-2.8-15c0-9.4,0.5-12.6,3.2-22
	c4.1-14.1,4.2-17.9,0.5-19.4c-1.5-0.6-4.4-2.6-6.5-4.4l-3.7-3.2l-0.1-10.7c-0.1-11.7,0.1-11.2-6.1-10.8c-2.7,0.2-2.7,0.1-2.7-5.7
	v-5.9l-6-5.6c-5.2-4.9-6.1-6.2-6.6-10.2c-0.3-2.5-1-4.8-1.5-5.1c-1.3-0.8-1-15.9,0.3-18.8c1.6-3.5,0.3-7.3-3.1-9.1
	c-3.6-1.8-4.7-5.4-3.2-10.3c1.3-4.3,0.7-5-4.4-5.8c-2.2-0.3-4.7-1.4-5.7-2.5c-2.1-2.2-3.1-2.4-2.4-0.5c0.8,2-2.2,4.2-6.5,4.9
	c-4.9,0.7-14.3,5.3-18.3,8.8c-3.3,2.9-3.3,2.9-15.4,2.5c-11.8-0.3-12.2-0.3-13.7,2c-0.8,1.3-2.2,2.4-2.9,2.4c-2.1,0-2.6,2.5-1.3,6
	c1.5,4,0.4,5.9-5.3,8.8c-3.4,1.8-6.1,2.2-12.1,2.2c-7.9,0-10.9-1.2-10.9-4.6c0-0.8-0.4-1.2-1-0.9c-0.5,0.3-1,2-1,3.6
	c0,1.9-0.6,3.2-1.7,3.6c-3.3,1.2-10.3,6.4-11.9,8.9c-1.3,2-1.4,2.9-0.4,5.4c0.7,1.6,0.9,4.1,0.6,5.5c-0.5,2.2-1.2,2.5-4.5,2.5
	c-4.6,0-7.8-2.4-14-10.4c-5.3-6.9-10.4-10.3-12.6-8.5c-0.8,0.7-3.7,1.6-6.5,2c-2.7,0.4-6.3,1.7-7.9,2.9s-5.2,2.4-8,2.7
	c-5.9,0.7-7.1-0.7-5-5.8c1.1-2.7,1.1-3.3-0.4-4.3c-2.9-2.1-1.9-4.3,2.8-6.4c2.5-1.1,4.5-2.4,4.5-2.8c0-0.4-2-1.6-4.5-2.6
	c-4-1.6-5.3-1.7-11.5-0.7c-9.5,1.6-12.6,0.8-14.1-3.6c-1.1-3.5-2.3-4.3-3.5-2.4c-1.2,2-6.1,1-8.8-1.8c-3.4-3.6-3.4-5.3,0.1-7.4
	c2.2-1.4,2.4-1.7,0.9-1.7c-1,0-3.5,1.4-5.4,3.1c-3.6,3.1-11.2,6.9-13.9,6.9c-0.8,0-2.7,0.9-4.1,2c-4.9,3.9-9.3,1.8-9.3-4.4
	c0-2-0.6-2.7-2.7-3.1c-1.5-0.3-3.9-1.2-5.4-1.9s-3.7-1.1-5.1-0.9c-2.1,0.4-2.4,0.9-2,3.6c0.2,1.7,0.9,3.8,1.5,4.5
	c2.4,3-0.4,14.5-3.8,15.8c-1.2,0.5-1.2,0.9,0.1,2.8c1.3,2,1.3,2.5-0.5,4.8c-1.6,2-2,4.1-2,10v7.5l-4.2,2.8c-2.3,1.5-4.9,2.8-5.7,2.7
	c-4-0.2-7.2,1.1-8,3.3c-0.5,1.3-2.1,4.2-3.5,6.5c-2.4,3.8-2.9,4.1-5.7,3.5c-2-0.4-3.9-0.1-5.5,1c-1.8,1.2-3.7,1.4-7.8,0.9
	c-6.7-0.8-8.1,0.1-9,6.4c-0.4,2.6-1.3,5.4-2.2,6.4c-1.3,1.5-1.3,2.1,0.6,5.3c2.7,4.5,2.7,9.1,0.1,13c-1.1,1.6-2,4.2-2,5.6
	c0,1.4-1.1,4.3-2.5,6.3c-1.4,2-2.5,4.1-2.5,4.6s-0.4,1-1,1c-0.5,0-1,1.6-1,3.5c0,2.1-0.8,4.3-1.9,5.4c-1.7,1.7-3.8,9.8-3.3,12.8
	c0.3,1.5-3.8,9.3-4.9,9.3c-0.4,0-1.3,1.2-1.9,2.7s-1.5,3.4-2,4.2c-0.5,0.8-1.7,3.7-2.7,6.4c-1.8,5.1-5.3,8.2-10.6,9.3
	c-1.5,0.3-2.7,1.2-2.7,2s-0.5,1.4-1.1,1.4c-1.3,0-0.4,4.7,1.3,6.7c1.4,1.6,2.8,0.7,2.8-1.9c0-1.6,0.6-2,2.7-1.8
	c4.6,0.3,5.1,0.1,6.2-3.4c1.2-3.8,3-4.6,10.1-4.6c4.5,0,4.6,0.1,5.7,3.9c1.6,5.5,1.4,7.8-0.8,10.1c-2.9,2.9-2.5,4,1.8,4
	c3.2,0,4.3,0.6,7.3,4.2c4.4,5.3,5.1,7.1,3.5,9.3c-0.8,1.1-1.1,3.6-0.8,6.7l0.5,5l-6-0.7l-6-0.7l-3.3,4.6c-3.8,5.3-3.8,6.8,0.1,19.2
	c1.7,5.3,2.7,7.2,4,7.2c3.2,0,8.6,7.1,9.8,12.7c1.1,5.2,0.3,16.8-1.9,28.7c-0.9,4.7-0.8,5,2.4,8.5l3.3,3.6l2.8-2.1
	c2.4-1.8,2.8-2.7,2.5-6.1c-0.2-2.2,0.1-4.3,0.7-4.7c0.6-0.4,4.4-0.3,8.5,0c6.4,0.6,7.5,1,8,2.7c0.5,1.9,0.6,2,2.4,0.4
	c1.1-1,3.5-1.7,6-1.7c2.3,0,4.2-0.4,4.2-0.8s-1.3-2.1-3-3.7c-2.5-2.4-3-3.7-3-7.6c0-6,2.5-9.3,8.5-10.9c5.1-1.4,7.2-0.5,7.7,3.3
	c0.2,1.7,1.1,2.2,4,2.5c3.7,0.3,3.7,0.3,4-4l0.3-4.3h6.6c7.5,0,10.1-1.5,12.5-7.3c0.8-1.8,2.1-3.5,2.9-3.9c2.4-0.9,5.9,0.5,7.9,3.3
	c1.9,2.7,1.9,2.8-0.9,9.6c-0.6,1.3,0.1,2.1,3.1,3.5c2.1,1,5.3,3,7.1,4.5s3.9,2.8,4.6,2.8c1.5,0,2.6,2.1,2.6,5.4
	c0,1.7,0.9,2.5,4.4,3.5c4.1,1.2,4.6,1.2,7.5-1c3.7-2.8,4.2-4.3,3.8-13.3c-0.3-6.8-0.2-7,2.5-7.9c3.8-1.4,8.2,0.3,8.6,3.2
	c0.3,1.8,1,2.2,3.7,2.2c1.9,0,3.4-0.4,3.4-1c0-1.6,3.6-1.2,5,0.5c0.9,1.1,2.2,1.3,4.7,0.9c2.6-0.5,4.1-0.2,6.3,1.5
	c1.6,1.2,3.2,2.1,3.5,2.1s2.2,1.6,4.1,3.5c3.1,3.1,4.1,3.5,8.7,3.5c5.6,0,7.6,1.2,7.6,4.4c0,1.1,0.7,2.9,1.5,3.9
	c1.3,1.8,2,1.8,10.1,0.8c6.4-0.8,9.1-0.8,10,0c1.7,1.5,1.7,6.1-0.1,10.4C474.7,1099.8,476.4,1100.2,480.8,1096.5L480.8,1096.5z
	 M731.8,895.3c5.6-0.6,6.2-0.9,6.8-3.2c0.3-1.4,1.7-5,3.1-8c1.8-3.9,2.2-5.7,1.4-6.4c-3.1-3.1,0.2-10.1,5.9-12.4
	c5.5-2.3,9-5.2,9-7.3c0-1.1,1.1-3.7,2.5-5.9s2.5-4.5,2.5-5.1c0-0.6,2-3.6,4.3-6.8c4.7-6.1,6.7-10.7,6.7-15.4c0-3.9,1.2-6,8.6-14.8
	c13.1-15.6,40.1-37.3,56.3-45.5c8.5-4.2,27.6-10.9,30.2-10.4c3,0.5,4.8-1.3,4.8-4.7c0-2.2,2.4-8.3,7-17.5
	c20.6-41.1,34.9-79.3,37.9-101.2c1.7-12.7,1.7-12.9-0.5-29.1c-1.3-9-3-20.1-3.9-24.7c-1.3-7-5.5-37.6-5.5-40.1
	c0-1.1-3.5-0.9-4.7,0.4c-0.7,0.7-0.8,2.1-0.2,4.2c2.2,7.8,0.1,14.7-5.8,18.5c-4,2.6-9.5,2.3-11.2-0.6c-0.6-1-3.9-2.3-8.8-3.4
	c-12-2.7-15.4-4.1-16-6.6c-0.3-1.2-1.1-2.2-1.8-2.2c-2.2,0-11-4.2-12.2-5.9c-0.7-0.9-1.2-2.3-1.2-3.2s-0.7-1.9-1.5-2.2
	c-0.9-0.3-1.5-1.8-1.5-3.6c0-2.3,0.4-3,1.9-3c2.8,0,3.5-1.8,1.7-3.9c-0.9-1-1.6-3.4-1.6-5.5c0-2.7-0.3-3.5-1.2-2.9
	c-1.1,0.7-7.1,2.3-14.8,3.9c-1.5,0.3-3.2,0-4-0.8c-0.8-0.8-3-2.3-4.9-3.5s-7.5-6.2-12.3-11.2c-6.7-6.9-9.4-9.1-11.5-9.1
	c-1.5,0-3.8-0.7-5.2-1.5s-3.7-1.4-5.2-1.5c-1.5,0-2.9-0.4-3.2-0.9c-0.3-0.5-4.6-1.1-9.7-1.4c-7.4-0.5-10.4-1.2-15.5-3.6
	c-3.7-1.8-8-3.1-10.2-3.1c-2.2,0-6.6-1.3-10.2-3c-3.5-1.6-7.4-3-8.6-3c-2.6,0-5.5-3.7-5.5-7c0-1.1-0.9-2.9-2-4c-1.1-1.1-2-2.7-2-3.5
	s-0.8-1.5-1.8-1.5c-1.4,0-5.5,7.5-17.7,32.7c-8.7,18-16.2,33.2-16.7,33.7c-0.5,0.5-5,1.1-10.1,1.2c-5.1,0.1-10.6,0.5-12.3,0.8
	c-2.7,0.5-3.4,0.2-5-2.5c-1-1.7-2.1-3.1-2.5-3.1c-1.3,0-2,3.3-0.9,4.4c1.8,1.8,1.1,5.2-1.6,7.7c-1.4,1.3-4.2,4.7-6.1,7.4
	s-4.7,6-6.2,7.2l-2.6,2.2l2.7,0c2.5,0,2.7,0.3,2.7,3.8c0,2.7-0.8,4.7-2.5,6.7c-3.1,3.6-4,6.1-2.7,7.7c1.7,2.2,0.2,7.8-2.4,8.8
	c-2.2,0.8-2.3,1.3-1.8,6.2c0.6,5.1,0.5,5.4-3.3,9.3c-3.3,3.4-3.9,4.7-3.9,8.2c0,2.3-0.6,4.9-1.3,5.7c-1.7,2-5.9,2-8.2-0.1
	c-1.1-1-1.8-1.2-1.8-0.5c0,0.6-0.7,1.2-1.5,1.2c-0.8,0-1.5,0.4-1.5,1c0,1.4-4.3,1.3-5.8-0.2c-0.9-0.9-1.2-0.8-1.2,0.6
	c0,1-1.3,2.9-2.9,4.2c-1.6,1.4-3.3,3.5-3.6,4.7c-0.4,1.2-1.8,3.9-3.1,6L592,631l2.3,0.9c1.2,0.5,3.1,1.2,4,1.5c1,0.3,2.5,2.1,3.4,4
	c1.2,2.5,2.1,3.3,3.5,2.9c2.5-0.7,4.6,1.3,7,6.2c1.1,2.3,3.3,4.9,5,5.9c2.8,1.7,3,2.1,2.4,5.6c-0.6,3.7-0.5,4,3.4,6.4
	c4.7,2.9,4.8,3.7,2.1,9.1c-1.7,3.3-1.8,4-0.5,4.3c1.2,0.3,5.6,9.6,5.6,12c0,1.9,6,6.3,9.3,6.8c5.2,0.8,12.7,9.7,13.4,15.6
	c0.4,3.9,0.2,4.3-3.1,6.4c-4.2,2.7-4.4,4-1.1,9c1.4,2.1,2.8,5.9,3.1,8.5c0.8,6.2-1.1,9.2-6.4,10.1c-2.1,0.3-5.4,1.4-7.3,2.4
	c-4.1,2.1-14.4,2.3-20.6,0.4c-4.8-1.5-4-1.8-13.3,6.9c-7.1,6.8-13.8,19.4-12.5,23.8c0.4,1.5,0.8,7.3,0.9,13
	c0.1,10.2,0.1,10.3,2.9,12c3.3,2,4.2,4.7,3.2,10.4c-0.4,2.3-0.8,7.2-0.9,10.8l-0.2,6.5l4.3,0.3c3.5,0.3,5.1,1.1,8.8,4.8
	c2.5,2.5,4.8,4.2,5.2,3.9s1.2-2.1,1.8-3.8c0.9-2.6,1.6-3.2,3.9-3.2c2.5,0,3,0.6,4.5,5.3c0.9,2.9,2.4,6.1,3.3,7
	c0.8,0.9,1.7,2.9,1.9,4.2c0.3,2.4,0.6,2.5,10.3,3c5.5,0.3,10.5,0.8,11.1,1.2c0.6,0.4,3.1,0,5.6-0.9c2.7-1,5.5-1.4,7.1-1
	c2.2,0.6,2.7,1.2,2.7,4c0,6.4,1.1,9.6,3.6,10.2c1.4,0.3,2.7,1.8,3.3,3.5c0.6,1.6,1.5,2.9,2,2.9s1.3,0.9,1.6,2
	c0.4,1.1,2.8,3.1,5.4,4.5s5.1,3.2,5.4,4.2s1,2.5,1.6,3.3c0.5,0.8,1.2,2.3,1.5,3.3c0.5,1.5,1.2,1.7,3.6,1.2c1.8-0.4,3.6-0.2,4.4,0.5
	c0.9,0.8,3.3,1,6.7,0.6c3.5-0.4,6.9-0.1,9.8,0.9C722.3,896.1,723.7,896.2,731.8,895.3L731.8,895.3z M470.5,845
	c-1-3.1-0.8-7.2,0.4-10.2c1.1-2.7,7.7-8.2,11.9-9.9c1.5-0.6,2.2-1.7,2.2-3.3c0-4.2,1-5.6,4.2-5.6c2.3,0,3.1,0.6,3.9,2.9
	c0.9,2.6,1.5,2.9,7,3.5c6.2,0.7,11.8-0.8,13.5-3.5c0.5-0.7,0.9-3.6,0.9-6.4c0-4.1,0.4-5.2,2.1-5.9c1.1-0.5,2.8-2.2,3.7-3.8
	c1.8-3.2,1-3.1,20.3-1.2c4.7,0.5,5.4,0.3,9.3-3c4.9-4.1,11.7-7.3,17.4-8.2c3.2-0.5,4.2-1.2,5.1-3.5c0.9-2.3,1.7-2.8,4.2-2.8
	c1.7,0,3.7,0.7,4.4,1.5c0.7,0.8,2.1,1.5,3.2,1.5s2.9,0.5,4,1.1c1.9,1,2,0.9,1.4-1.2c-2.3-7.6-1.9-11.8,2-20.2
	c3.6-7.9,7.3-12.3,17.1-20.6l2.8-2.4l6.5,1.7c3.6,0.9,7.5,1.9,8.8,2.2s4.6-0.4,7.5-1.5c2.9-1.1,7.2-2.6,9.5-3.2
	c4.2-1.1,4.7-1.8,4.3-6.5c-0.1-1.1-1.2-3.6-2.5-5.5s-2.6-5.4-3-7.7c-0.7-4-0.6-4.2,3.3-7c2.2-1.5,4.1-3.1,4.1-3.5s-1.5-2.5-3.5-4.9
	s-3.9-4.9-4.3-5.7c-0.4-0.8-2.8-1.9-5.2-2.5c-5.9-1.3-8.4-3.9-11.5-12c-1.7-4.4-3.2-6.9-4.2-6.9c-1.2,0-1.4-0.8-1-4.2
	c0.3-2.3,0.8-5.1,1.2-6.2c0.5-1.5-0.1-2.4-2.4-3.7c-2.6-1.5-3-2.3-3-5.9c0-3.5-0.5-4.7-3.2-6.9c-1.8-1.5-3.7-4.2-4.3-6.1
	c-0.9-2.7-1.8-3.5-4.2-3.9c-2.1-0.3-3.9-1.6-5.4-3.9c-1.5-2.3-3.7-3.9-6.6-4.8c-3.5-1.2-4.2-1.9-4.2-3.9c0-1.4,0.9-3.6,2-5
	c1.1-1.4,1.7-2.9,1.4-3.4c-0.3-0.5-0.1-0.9,0.5-0.9s1.5-1,2-2.3s2-3.6,3.3-5.2c1.3-1.6,2.7-3.8,3.1-4.8c0.6-1.6,1.4-1.8,4.7-1.3
	c3.2,0.4,4.3,0.2,5.2-1.4c1.5-2.3,5.4-2.5,7.8-0.3c2.6,2.3,3.9,0.9,3.9-4.1c0-4.1,1.8-7.5,4.1-7.5c0.5,0,0.9-0.6,0.9-1.3
	s0.5-1.8,1.2-2.5c0.7-0.7,1.1-3.4,0.9-6.5c-0.2-4.8,0-5.4,2.3-6.5c2.3-1.1,2.5-1.5,1.9-6.2c-0.5-4.6-0.3-5.4,2.5-9
	c3.8-4.7,3.9-6,0.6-6c-2.2,0-2.5-0.4-2.5-3.5c0-2.2,0.6-3.7,1.5-4.1c0.8-0.3,3.5-3.4,6-6.9c2.5-3.5,5.5-7,6.7-7.9
	c1.7-1.2,1.9-1.8,1-2.7c-0.7-0.7-1.2-2-1.2-3c0-2.5,4-8.9,5.6-8.9c1.3,0,6.4,4.8,6.4,6c0,0.9,19.5,0.4,20.9-0.5
	c0.7-0.5,7.1-12.6,14.1-26.9s14.3-29.4,16.3-33.5c3.4-7,3.5-7.6,2.4-11.7c-0.8-3-1.8-4.6-3.2-5c-6.2-1.8-12.6-5.9-15-9.5
	c-2.9-4.4-3.5-4.5-13.3-2.5c-4.4,0.9-17.9,1.6-38.3,2c-32,0.6-41.3,1.6-44,4.5c-0.8,0.9-2.8,2.4-4.4,3.5c-2.5,1.6-3.2,1.7-5.3,0.5
	c-1.9-1-2.8-1-4.1-0.1c-4,2.7-10.1,6-12.4,6.6c-1.9,0.5-3.3,2.5-6.3,9.2c-4.8,10.6-10.5,16.5-16.1,16.5c-3,0-3.8-0.4-4.7-2.8
	c-0.9-2.3-1.5-2.7-3.9-2.4c-1.6,0.2-3.1,0.8-3.4,1.3s-2.1,0.9-3.9,0.9c-2.6,0-3.9-0.7-5.4-2.9c-2.8-3.9-7.9-4.8-9.1-1.5
	c-1,2.6-3.3,3-7.6,1.2c-1.5-0.6-4.2-1-5.9-0.9c-2.9,0.2-3.2-0.1-3.8-3.4c-0.4-2-0.4-4.6,0-5.8c0.4-1.2,0.7-4.8,0.8-8l0.1-5.9
	l3.8-1.3c2.1-0.7,4.1-1.6,4.3-1.8c1-1-0.8-4.7-2.4-4.7c-0.9,0-3.1-1.2-5-2.6c-2.6-2-4-2.4-6.3-1.9c-1.6,0.4-3,1-3,1.4
	c0,1-6.7,4.1-8.8,4.1c-1.6,0-3.6-1.1-9.6-5.4c-2.6-1.8-2.7-1.8-6.1,0.5c-1.9,1.3-3.5,2.7-3.5,3c0,0.4-2.2,1-4.8,1.3l-4.8,0.7
	l0.1,6.2l0.1,6.2l-4.9,0.3c-2.7,0.2-5.8,1-7,1.7s-2.6,1.4-3.4,1.4s-7.7-3.2-15.5-7.1s-16.9-8-20.2-9.1c-6.4-2.1-14.5-6.5-14.5-7.8
	c0-0.4-5.1-1.1-11.2-1.5c-8.5-0.5-12.2-0.3-15.2,0.7c-2.7,0.9-5,1.1-7.1,0.6c-3-0.8-4.3-3-6.9-11.6c-0.2-0.7-1.1-1.2-1.9-1.2
	s-2-1.2-2.5-2.6c-0.8-2.1-1.5-2.5-3.2-2c-1.2,0.3-9.7,0.6-18.8,0.6l-16.5,0l-2.1,4.4c-1.9,4-2,4.6-0.6,6.5c0.9,1.3,1.2,2.9,0.8,3.9
	c-1.3,3-1.1,6.2,0.4,6.2c0.8,0,2.9,1.6,4.7,3.6l3.3,3.6l0.7-3.3c1-4.9,1.3-5,4.5-2.7c2.7,2,3.2,2.1,9.1,0.8c6-1.3,6.3-1.2,8,0.9
	c1,1.2,2.1,3.8,2.5,5.7c0.5,2.7,1,3.3,2.4,2.9c1-0.3,2.1-0.1,2.5,0.6s2.2,1.8,3.9,2.5c3.1,1.3,7.2,7.4,6.7,10
	c-0.4,1.9,5.6,6.4,9.9,7.3c2.3,0.5,4.5,1.5,4.9,2.1s1.6,1,2.6,0.8c1.5-0.3,2.1,0.6,3,4.2c0.8,3.4,1.6,4.6,3.3,4.8
	c1.2,0.2,2.2,0.9,2.2,1.5c0,1.6,3.8,3.9,5.2,3.1c0.6-0.4,2.6-1,4.5-1.4c2.9-0.7,3.4-0.5,3.4,1.1c0,2.4-6.1,7.4-13.2,10.8
	c-4.3,2.1-5.7,3.2-5.7,4.9c0,1.2-0.5,2.5-1,2.8c-0.6,0.4-0.4,1.7,0.5,3.5c0.8,1.6,1.5,4.3,1.5,6c0,1.9,0.6,3.3,1.6,3.7
	c0.9,0.3,2,1.7,2.5,3c0.7,1.7,1.7,2.4,3.8,2.4c1.6,0,3.4,0.6,4.1,1.4c0.8,1,2.3,1.2,4.6,0.9c3-0.5,3.4-0.3,3.4,1.6
	c0,2.4,1,2.7,2.8,0.9c0.9-0.9,1.1-0.3,0.9,2.7c-0.2,3.9-0.2,3.9,3.6,4.3c2.5,0.2,4,0.9,4.4,2c0.6,1.8,5.2,6.5,6.5,6.8
	c0.4,0.1,1.1,0.2,1.5,0.3c0.4,0.1,1.3,1,2,2.1c1,1.5,1,2.5,0.1,4.1c-1,1.9-0.9,2.1,1.4,1.5c2.9-0.7,5.1,1.2,3.7,3.3
	c-0.5,0.9-0.3,2.5,0.6,4.2c0.8,1.5,1.4,3.9,1.4,5.3s0.5,2.5,1.1,2.5c1.6,0,3.8,3.1,3.8,5.5c0,1.1,0.5,2.5,1.1,3.1
	c0.8,0.8,0.6,1.9-0.5,4.1c-0.9,1.7-1.6,3.8-1.6,4.6s-0.6,1.5-1.4,1.5c-2.4,0-2.9,2-1.1,4c0.9,1,1.4,2.3,1.1,2.9
	c-0.3,0.5,1,1.5,2.9,2.1c3.6,1.2,4.2,2.8,2.9,7.8c-0.5,1.7-1.3,2.2-3.9,2.2c-1.8,0-3.8,0.7-4.5,1.5c-1.1,1.3-0.8,1.6,1.9,2.1
	c2.4,0.5,3,1,2.5,2.2c-1.2,3.1-1,3.6,1.5,3.8c1.4,0.1,3,0.2,3.7,0.2s1.7,1,2.3,2.1c0.9,1.7,0.6,2.6-2,5.5c-1.7,1.9-3.1,3.9-3.1,4.5
	s-0.6,1-1.3,1c-1.8,0-4.7,5.2-4.7,8.4c0,1.5,0.8,3,1.8,3.5c1.4,0.7,1.8,2,1.6,4.6c-0.2,3.3-0.8,4-6.3,7.5c-5.8,3.6-6.1,4.1-6.1,7.7
	c0,2.1-0.5,4.3-1.1,5c-0.9,0.9-0.7,1.8,0.5,3.7c0.9,1.4,1.6,3.2,1.6,4c0,0.8,1.3,2.6,3,3.9c2.6,2.2,2.8,2.7,1.4,3.8
	c-0.8,0.7-1.3,2.1-1.1,3.1c0.3,1.1-0.1,1.8-0.8,1.8c-1.8,0-7,6.8-7.9,10.2c-0.7,2.7-0.7,2.7-9.4,2.7c-7.6,0-9.4-0.4-14.4-2.9
	c-3.1-1.6-5.9-2.6-6.2-2.3c-1.1,1.1-0.5,4,1,5.3c1.3,1,1.5,2.4,0.9,6.6c-0.5,3.6-0.2,6.6,0.9,9.8c2.4,7,2.1,8.1-2.4,9.9
	c-2.2,0.9-4,2.3-4,3c0,0.9-1.2,1.6-3.2,1.8c-2.5,0.2-3.3,0.9-3.8,2.8c-0.5,2.1-1.1,2.5-3.6,2.2c-4.1-0.4-6.9,2.8-8.8,10.2
	c-1.7,6.5-2.7,7.6-7.3,7.6c-2.5,0-3.4,0.6-4.4,3.1c-1.5,3.5-5.7,6.1-8.8,5.3c-2.7-0.7-6.2,4.6-6.2,9.3c0,1.8-0.5,3.5-1.1,3.8
	s-0.8,1.9-0.5,3.3c0.3,1.6-0.1,4-1,5.9c-0.9,1.8-1.3,4.1-0.9,5.3c0.5,1.5,0.1,2.5-1.4,3.6c-2.8,1.9-2.6,3.8,0.4,5.8
	c1.4,0.9,2.5,1.2,2.5,0.7s1.8-1.2,4-1.6c3.1-0.5,4.5-0.3,6.5,1.3c1.4,1.1,4,2.3,5.9,2.6c3.1,0.6,3.5,1.1,4.1,4.6
	c0.7,4.3,1.5,4.8,3.5,2.5c0.7-0.8,2.2-1.5,3.4-1.5c3.4,0,10.6-3.7,14.8-7.5c3.4-3,4.5-3.5,8.1-3.2c3.8,0.3,4.2,0.6,4.5,3.2
	c0.2,2.1-0.3,3.4-1.8,4.6c-2,1.5-2,1.8-0.5,3c1.2,1,1.9,1.1,2.8,0.2c2.4-2.4,5.6-1.3,7.9,2.8c2.7,4.8,3.4,5.1,9,3.9
	c2.4-0.5,5.9-1.2,7.6-1.5c2.3-0.4,4.7,0.1,8.7,2c5.2,2.5,5.6,2.9,5.6,6.1c0,2.4-0.5,3.7-1.7,4.1c-3.3,1.2-4.2,2.4-3.3,4.6
	c0.5,1.4,0.3,3-0.7,4.5c-2.4,3.6-0.8,3.7,5.7,0.3c3.3-1.7,7.3-3.1,8.8-3.1c1.5,0,4.1-0.9,5.8-2c5.4-3.6,8.6-2.3,16.5,6.4
	c1.9,2.2,4.6,5.1,6,6.5s2.4,2.9,2.2,3.4s0.2,0.6,0.7,0.3s1.5,0.1,2.1,0.9C469.8,847.6,471.2,847.3,470.5,845L470.5,845z
	 M896.8,557.6c1.5-0.8,3.6-3.3,4.6-5.5c1.6-3.5,1.7-4.8,0.7-9c-1.4-6-0.8-7.8,2.7-8.6c1.5-0.3,2.9-0.7,3.2-0.7
	c0.3-0.1-1.2-12.3-3.2-27.2c-2.1-14.8-4.9-37.8-6.2-51c-2.2-21.9-2.3-26.4-1.6-51c0.8-28,2.5-42.4,7-57.9c1.6-5.6,1.9-8.6,1.4-16.3
	c-0.3-5.2-1-9.7-1.5-10c-0.5-0.3-0.5-1.1,0.1-1.7c0.5-0.7,1.2-6.1,1.4-12.2c0.4-10,0.9-12.3,5.6-26.5c2.9-8.5,7.9-21.3,11.2-28.3
	c3.3-7.1,5.8-13.1,5.5-13.3c-0.3-0.3,0-1.8,0.5-3.4c1.2-3.5,0.1-5.4-4-6.4c-2.5-0.6-68.5-42.2-170-107.2
	c-35.3-22.6-45.8-28.9-50.8-30.3c-3.5-1-7.6-2.7-9.1-3.7s-3.3-1.8-3.9-1.5s-3.2-1.2-5.7-3.1c-2.8-2.1-5.2-3.3-6.2-2.9
	c-0.9,0.4-2.4-0.3-3.6-1.5c-1.1-1.2-2.8-2.1-3.8-2.1s-2.8-1.1-4.1-2.5c-2.5-2.7-5-3.1-8.1-1.5c-1.5,0.8-2.5,0.7-4.1-0.5
	c-1.5-1-2.5-1.2-3.4-0.5c-1.3,1.1-18.4-0.1-28.4-2c-5.1-1-5.6-0.9-7.2,1.2l-1.7,2.2l-4.3-4.1c-3.7-3.6-4.8-4.1-7.8-3.7
	c-3,0.4-4-0.1-6.9-3.1c-1.9-2-4.1-3.6-4.9-3.6s-3,1.3-5.1,2.8c-4,3.1-9.9,5.8-14.8,6.7c-2.8,0.5-3.2,1-3.5,4.3
	c-0.3,3.5-0.5,3.7-3.8,3.8c-6.6,0.2-7,0.3-7,2.8c0,1.3-0.7,2.9-1.5,3.6c-1.4,1.1-1.4,1.4,0,2.9c1.4,1.5,1.3,1.9-1,4
	c-1.4,1.3-2.5,3.4-2.5,4.6c0,2.2-0.5,2.5-6.2,3.8c-1.5,0.3-2.7,1.3-2.7,2.1s-1.1,2.5-2.5,3.8l-2.5,2.4l2.1,2.7
	c1.2,1.5,2.6,2.7,3.3,2.7c0.6,0,2.4,1.1,4,2.5c2.9,2.6,4.7,6.9,4.7,11.7c0,1.5,1.1,4.4,2.5,6.4s2.5,4.4,2.5,5.4c0,1.3,0.7,1.6,3,1.2
	c1.7-0.2,3.6,0.1,4.4,0.7c1,0.8,1.6,0.8,2,0.1c0.4-0.6,2.2-1,4-1c2.5,0,4,0.8,6,3.2c2.4,2.9,2.6,3.8,2.5,11.2
	c-0.1,5.4,0.4,9.9,1.6,13.6c1,3.1,1.9,9.1,2,13.5c0.1,4.4,0.6,8.9,1,9.9c0.5,1.2,0.4,2.1-0.2,2.3c-1.4,0.5-14.6,10.7-21.7,16.7
	c-5.9,5-6.7,6.9-4.2,10.2c0.8,1.1,1.5,3.2,1.5,4.8c0,1.6,0.7,4.3,1.6,6.2c1.4,3,1.9,3.3,5,2.8c2-0.3,4-0.1,4.9,0.7
	c2,1.6,1.9,6-0.1,8.9c-1.6,2.2-1.6,2.3,0.4,1.2c1.1-0.6,5-1.1,8.6-1.1c8,0,12,2,19.1,9.4c9,9.4,10.9,10.6,17.6,10.6h5.9v4
	c0,2.9-0.5,4.2-2,5c-2.4,1.3-2.6,3.3-0.5,5c1.6,1.3,2.1,7,0.7,7c-0.5,0-0.3,2.1,0.3,4.7c1.2,4.9,5.2,9.3,8.4,9.3c1,0,3,1.3,4.6,3
	l2.8,3l-1.9,4.1c-1.8,4.1-1.8,4.2,0.1,5.6c1.5,1.1,3.6,1.3,9.2,0.8c5.8-0.5,7.8-0.3,9.7,0.9c1.3,0.9,4.2,1.6,6.3,1.6
	c5.5,0,8.7,3.5,7.9,8.6l-0.6,3.6l3.7-0.7c2-0.4,5.1-1.2,6.9-1.8c2.4-0.8,3.9-0.8,6.3,0.2c2.7,1.1,3.1,1.8,2.7,3.9
	c-0.3,1.4-4.9,15.6-10.3,31.4l-9.9,28.8l-7,6.8c-3.8,3.8-8.9,8.5-11.2,10.5c-4.1,3.6-4.2,3.8-4.6,10.9c-0.2,4-1,8.6-1.7,10.3
	c-2.6,6.1-1.9,6.4,15.7,6.4c9.9,0,18.2-0.6,22.3-1.5c3.6-0.8,8.8-1.4,11.6-1.5c4.8,0,5.3,0.2,7.8,3.9c2.5,3.6,9.3,7.9,15.1,9.5
	c1.5,0.4,2.4,1.9,3.2,5.6c0.6,2.8,1.2,5.9,1.2,7c0,1.2,0.7,1.9,1.9,1.9c1.9,0,6.1,6.5,6.1,9.6c0,2.8,3.2,6.4,5.6,6.4
	c1.3,0,5.2,1.3,8.7,3s7.9,3,9.9,3s6.5,1.4,10.1,3.1c5.2,2.4,8.4,3.2,15.6,3.6c5,0.3,9.3,1,9.6,1.4c0.3,0.5,1.7,0.9,3.2,0.9
	s3.8,0.7,5.2,1.5s3.7,1.4,5.1,1.5c2,0,4.9,2.3,11.5,9.1c4.9,5,10.4,10,12.4,11.2s3.9,2.7,4.5,3.4c0.8,1,1.8,1,5-0.2
	c2.2-0.8,5.1-1.5,6.5-1.5s3-0.5,3.6-1.1s2.1-0.9,3.4-0.7c2,0.3,2.4,0.9,2.4,3.9c0,2,0.6,4.3,1.3,5.2c2.1,2.5,1.1,7-1.7,7.7
	c-2.4,0.6-2.4,0.6-0.5,2.5c1,1,1.9,2.4,2,3c0.1,0.6,0.2,1.7,0.3,2.4c0.2,1.5,7.7,5.1,10.8,5.2c1.4,0,2.5,1,3.3,2.8
	c1.3,3.1,4.5,4.5,16.1,7.1c4.5,1,8,2.4,8.8,3.4C890.4,559.4,893.1,559.5,896.8,557.6L896.8,557.6z M559,471.7
	c1.6-1.7,4.6-6.9,6.6-11.5c2.9-6.3,4.3-8.4,6.2-8.9c1.3-0.3,4.4-1.8,6.8-3.2c8.1-4.7,8.8-5.1,10.5-5.1c0.9,0,2,0.4,2.3,1
	c1,1.6,2,1.2,4.8-1.6c3.9-3.9,11.3-5.4,26.9-5.4l13.7,0v-4.9c0-2.7,0.7-6.2,1.5-7.7c0.9-1.7,1.5-5.5,1.5-9.3c0-6.4,0-6.5,4.6-10.5
	c2.5-2.2,7.8-7.2,11.6-11.1l7-7l9.5-27.8c5.8-17,9.2-28.2,8.6-28.7c-0.6-0.6-3.3-0.5-7.1,0.2c-8.9,1.6-11.2,0.8-11.2-3.8
	c0-5-2.3-7.3-7.5-7.3c-2.3,0-4.7-0.5-5.4-1.2c-0.8-0.8-3.8-1.1-8.5-0.9c-4,0.1-8.6-0.2-10.1-0.8c-2.8-1.1-2.8-1.2-2.3-7
	c0.6-6.2-0.8-9-4.5-9c-2.5,0-7.7-4.9-7.8-7.3c0-1.2-0.7-3-1.5-4.1c-1.8-2.3-1.9-5.7-0.3-7.3c0.9-0.9,0.7-1.8-0.5-3.7
	c-2.4-3.7-2.1-7.1,0.9-9c3.5-2.3,3.1-3.3-0.9-2.8c-5.8,0.7-9.8-1.5-18.3-9.8c-4.5-4.4-8.8-8-9.6-8c-0.8,0-2-0.7-2.7-1.5
	c-1.7-2-8.1-1.9-12.4,0.1c-1.9,0.9-4.2,1.4-5,1c-2-0.8-2-4.9-0.1-8.7l1.5-3h-4.5c-4,0-4.8-0.4-6.5-3.2c-1.1-1.8-2-4.4-2-5.9
	c0-1.5-0.9-4.6-2-7c-1.1-2.4-2-5.1-2-6c0-1.9,7.7-9.5,14.3-14.3c2.3-1.7,6.1-4.6,8.3-6.5c3.8-3.2,4.1-4,4.7-10
	c0.5-5.3,0.2-7.9-1.8-14.3c-2-6.3-2.3-9.1-1.9-14.6c0.5-6.5,0.4-6.9-2.4-10.2c-2.4-2.7-3.3-3.1-4.4-2.2c-0.8,0.7-4.1,1.1-7.7,1
	l-6.3-0.2l-1.3-3.8c-0.7-2.1-2-4.6-2.9-5.6s-1.6-3.1-1.6-4.7c0-5.6-1.9-9.8-5.6-12.4c-5.2-3.6-8.4-7-8.4-9.1c0-2.7-7.5-2.2-11.9,0.7
	c-4,2.6-4.3,2.5-7.6-2.7c-2.8-4.4-3.5-4.6-10.1-2.3c-3.6,1.2-5.2,1.3-6.5,0.5c-1-0.6-2.6-1.1-3.7-1.1c-2.9,0-4.4-2.5-3.6-6
	c0.5-2.3,0.3-3-0.8-3c-0.8,0-1.7-0.5-1.9-1.1c-0.3-0.8-1.3-0.6-3.5,0.5l-3.1,1.6l0.5-4.4c0.4-3.7,0.2-4.5-1.7-5.5
	c-1.8-0.9-2.9-0.8-5.8,0.5c-3.4,1.6-3.7,1.6-5-0.2c-1.3-1.8-1.8-1.5-7.8,5l-6.4,6.8l-3.5-2.2c-1.9-1.2-3.5-2.7-3.5-3.3
	c0-0.6-0.5-0.4-1.1,0.6s-2,2.1-3,2.5c-1.7,0.6,1.7,4.2,22.7,23.6c13.6,12.6,25.1,24,25.6,25.3c0.5,1.3,0.9,6.2,0.9,10.8
	c0,8.2-0.1,8.4-2.5,8.9c-1.4,0.3-3.7,0.8-5.1,1.1c-1.5,0.3-3.6-0.1-5-1c-1.3-0.9-6.3-2-11.1-2.6s-9.4-1.6-10.2-2.3
	c-0.8-0.7-2.3-1.6-3.3-1.9c-1-0.3-1.7-1.2-1.7-1.8c0-2.5-3.2-4.8-6-4.2c-2.2,0.4-3.2,0-5-2.3c-1.4-1.7-2.5-2.4-2.7-1.7
	c-0.2,0.7-1,1-1.7,0.7c-0.7-0.3-3.2,1.6-5.6,4.1c-4.6,4.8-7.4,5.6-9.6,2.8c-1.3-1.6-1.4-1.5-1.2,1.2c0.3,3.8-1.7,7.5-4,7.5
	c-1,0-2.8-1.1-4-2.5c-3.9-4.5-7.2-2.6-7.2,4.1c0,4.2-1.3,6.4-2.5,4.4c-0.3-0.6-2.4-1-4.5-1c-3,0-4-0.5-4.5-2
	c-0.9-2.9-4.3-2.5-5.7,0.7c-0.6,1.5-1.3,2.9-1.3,3c-0.5,0.8-3.4-1.2-3.4-2.3c0-2.4-3.6-0.4-4.7,2.6c-0.7,1.8-1.8,2.9-2.9,3
	c-1,0-4.1,1.3-6.8,2.7c-3.6,2-5.1,3.4-5.3,5.2c-0.2,1.4-1,3.1-1.9,3.7c-1.5,1.1-1.4,1.5,0.6,3.6c2.6,2.8,2.8,4.7,0.5,4.7
	c-1.4,0-1.5,0.8-1.1,4.7l0.6,4.7l-5.2,3.5c-2.8,1.9-8.2,6.6-12,10.5c-6.7,6.9-6.8,7.1-6.4,11.4c0.3,2.4,0.9,4.7,1.5,5
	c0.5,0.3,1.2,4.7,1.4,9.6c0.4,8.8,0.3,8.9-2.1,9.5c-1.8,0.4-2.6,1.4-2.8,3.4c-0.4,3.1,1.1,4.5,4.6,4.6c1.2,0,2.2,0.5,2.2,1.1
	c0,1.7-4.3,4.8-6.7,4.9c-2.2,0-7.3,5.5-7.3,7.8c0,1.5,2.4,1.8,32.5,4.2c14.3,1.2,27,2.5,28.3,3c4.3,1.8,4.4,4.6,0.7,24.7
	c-1.9,10.3-4.1,22.1-5,26.1c-1.9,8.9-1.9,8.2,0,8.2c1,0,1.5,1.1,1.5,3.5c0,2.5-0.4,3.5-1.5,3.5c-0.8,0-1.8,0.7-2.1,1.5
	s-1.2,1.5-2,1.5c-2.1,0-1.7,1.8,0.6,2.5c1.1,0.3,2,1,2,1.5s1,1,2.2,1.2c1.2,0.2,2.1,0.9,2,1.6c-0.1,0.7,0.5,1.5,1.5,1.9
	s3.1,1.6,4.8,2.8c5.4,3.9,12.4,6.7,18.3,7.2c9.7,0.9,9.8,1.2,11,20.8c0.9,14.4,1.3,17.2,3.1,19.6c1.1,1.5,2.1,3.3,2.1,3.9
	c0,0.6,0.9,2.3,2,3.7c2.1,2.6,2.8,8.3,1,8.3c-0.5,0-2.5,1.4-4.4,3c-1.9,1.7-4.1,2.8-4.9,2.5c-0.8-0.3-2,0.1-2.7,1s-2.1,1.5-3.2,1.5
	s-1.9,0.5-1.9,1.1c0,0.8-3,1-10.7,0.5l-10.7-0.6l5.5,3c3,1.6,7.1,3.5,9,4.1c1.9,0.7,9.7,4.3,17.3,8c13.8,6.8,16.4,7.7,18.2,5.9
	c0.5-0.5,3.2-1.1,5.9-1.2l5-0.3l-0.3-6.1l-0.3-6.1l4.6-0.6c3.3-0.4,5.9-1.7,8.7-4.1c2.3-1.9,4.8-3.5,5.6-3.5s3.3,1.5,5.6,3.3
	s4.8,3.6,5.6,3.9c0.8,0.3,4-0.7,7-2.3c5.3-2.8,12-3.9,12-1.9c0,0.5,0.6,1,1.4,1s1.9,0.7,2.6,1.5s2,1.5,3,1.5c2,0,4.5,5.2,3.7,7.4
	c-0.3,0.8-2.7,2.2-5.2,3.2l-4.7,1.8l0.5,5.1c0.3,2.8,0.2,5.9-0.2,7s-0.5,3-0.3,4.2c0.3,1.8,0.9,2.2,2.6,1.8c1.2-0.3,3.8,0.2,5.9,1
	c3.7,1.6,3.8,1.5,4.9-1.1c1.1-2.4,1.6-2.6,5.7-2.1c3.5,0.4,5.1,1.2,7.1,3.7c2.6,3.2,2.7,3.2,6.6,1.9c2.2-0.7,4.3-1.7,4.9-2.1
	c2.1-1.7,4.3-0.8,4.9,2.1C549.3,478,553.8,477.5,559,471.7L559,471.7z"/>
</svg>
